<?xml version="1.0" encoding="UTF-8"?>
<svg width="1920px" height="2276px" viewBox="0 0 1920 2276" version="1.1" xmlns="http://www.w3.org/2000/svg" xmlns:xlink="http://www.w3.org/1999/xlink">
    <!-- Generator: Sketch 60 (88103) - https://sketch.com -->
    <title>04 Acceptance mark/Vertical/Main/Colour/Swish_Acceptance_Mark_Vertical-Main_SVG</title>
    <desc>Created with Sketch.</desc>
    <defs>
        <linearGradient x1="80.8150544%" y1="59.6365716%" x2="59.8678229%" y2="8.14952521%" id="linearGradient-1">
            <stop stop-color="#EF2131" offset="0%"></stop>
            <stop stop-color="#FECF2C" offset="100%"></stop>
        </linearGradient>
        <linearGradient x1="58.8181173%" y1="0%" x2="9.24395007%" y2="94.0712606%" id="linearGradient-2">
            <stop stop-color="#FBC52C" offset="0%"></stop>
            <stop stop-color="#F87130" offset="26.3921199%"></stop>
            <stop stop-color="#EF52E2" offset="56.079734%"></stop>
            <stop stop-color="#661EEC" offset="100%"></stop>
        </linearGradient>
        <linearGradient x1="20.5690473%" y1="41.0176198%" x2="40.5972643%" y2="91.2765373%" id="linearGradient-3">
            <stop stop-color="#78F6D8" offset="0%"></stop>
            <stop stop-color="#77D1F6" offset="26.5705044%"></stop>
            <stop stop-color="#70A4F3" offset="55.447147%"></stop>
            <stop stop-color="#661EEC" offset="100%"></stop>
        </linearGradient>
        <linearGradient x1="42.4403836%" y1="100%" x2="91.6136906%" y2="6.27757791%" id="linearGradient-4">
            <stop stop-color="#536EED" offset="0%"></stop>
            <stop stop-color="#54C3EC" offset="24.6657524%"></stop>
            <stop stop-color="#64D769" offset="56.4199509%"></stop>
            <stop stop-color="#FECF2C" offset="100%"></stop>
        </linearGradient>
    </defs>
    <g id="04-Acceptance-mark/Vertical/Main/Colour/Swish_Acceptance_Mark_Vertical-Main" stroke="none" stroke-width="1" fill="none" fill-rule="evenodd">
        <g id="Logotype" transform="translate(448.000000, 448.000000)">
            <g id="Wordmark/Swish" transform="translate(132.000000, 1146.000000)" fill="#4A4A49" fill-rule="nonzero">
                <path d="M798.286614,38.6970196 C798.286614,33.7583324 799.197891,29.1283827 801.020472,24.8070314 C802.843054,20.4856802 805.31652,16.7167386 808.440945,13.5000937 C811.56537,10.2834488 815.226751,7.74916053 819.425197,5.89715285 C823.623643,4.04514518 828.13121,3.11915523 832.948031,3.11915523 C837.829946,3.11915523 842.402603,4.04514518 846.666142,5.89715285 C850.92968,7.74916053 854.639879,10.2834488 857.79685,13.5000937 C860.953822,16.7167386 863.44356,20.4856802 865.266142,24.8070314 C867.088723,29.1283827 868,33.7583324 868,38.6970196 C868,43.6357067 867.088723,48.2656564 865.266142,52.5870077 C863.44356,56.9083589 860.953822,60.6773005 857.79685,63.8939454 C854.639879,67.1105903 850.92968,69.6448786 846.666142,71.4968863 C842.402603,73.3488939 837.829946,74.2748839 832.948031,74.2748839 C828.13121,74.2748839 823.623643,73.3488939 819.425197,71.4968863 C815.226751,69.6448786 811.56537,67.1105903 808.440945,63.8939454 C805.31652,60.6773005 802.843054,56.9083589 801.020472,52.5870077 C799.197891,48.2656564 798.286614,43.6357067 798.286614,38.6970196 Z M805.414173,38.6970196 C805.414173,42.7909313 806.113904,46.5923637 807.513386,50.1014309 C808.912868,53.6104805 810.849331,56.6646403 813.322835,59.2639493 C815.796338,61.8632584 818.70917,63.9101835 822.061417,65.4047862 C825.413665,66.8993889 829.0425,67.646679 832.948031,67.646679 C836.918655,67.646679 840.596309,66.8993889 843.981102,65.4047862 C847.365896,63.9101835 850.311274,61.8632584 852.817323,59.2639493 C855.323372,56.6646403 857.292381,53.6104805 858.724409,50.1014309 C860.156438,46.5923637 860.872441,42.7909313 860.872441,38.6970196 C860.872441,34.6031078 860.156438,30.8016754 858.724409,27.2926083 C857.292381,23.7835411 855.323372,20.7293988 852.817323,18.1300898 C850.311274,15.5307807 847.365896,13.4838556 843.981102,11.9892529 C840.596309,10.4946502 836.918655,9.74736009 832.948031,9.74736009 C829.0425,9.74736009 825.413665,10.4946502 822.061417,11.9892529 C818.70917,13.4838556 815.796338,15.5307807 813.322835,18.1300898 C810.849331,20.7293988 808.912868,23.7835411 807.513386,27.2926083 C806.113904,30.8016754 805.414173,34.6031078 805.414173,38.6970196 Z M821.03622,23.3936642 C821.03622,21.2492343 822.110225,20.1770354 824.258268,20.1770354 L835.291339,20.1770354 C838.806317,20.1770354 841.605239,21.1842525 843.688189,23.198717 C845.771139,25.2131815 846.812598,27.942415 846.812598,31.3864995 C846.812598,32.8161195 846.601052,34.0832636 846.177953,35.1879699 C845.754854,36.2926763 845.217851,37.2511571 844.566929,38.0634412 C843.916007,38.8757252 843.200004,39.5417882 842.418898,40.06165 C841.637791,40.5815118 840.856697,40.9389114 840.075591,41.1338596 L840.075591,41.3288068 C840.140683,41.3937895 840.23832,41.523753 840.368504,41.7187012 C840.498688,41.8486666 840.628871,42.0598573 840.759055,42.3522796 C840.889239,42.6447019 841.084513,42.985856 841.344882,43.3757524 L846.422047,53.2205861 C847.007877,54.3252924 847.138059,55.2187915 846.812598,55.9011101 C846.487137,56.5834287 845.771134,56.9245829 844.664567,56.9245829 L843.492913,56.9245829 C841.670332,56.9245829 840.401053,56.1448019 839.685039,54.5852165 L834.022047,42.6934372 L827.968504,42.6934372 L827.968504,53.8054277 C827.968504,55.8848749 826.95959,56.9245829 824.941732,56.9245829 L824.062992,56.9245829 C822.045134,56.9245829 821.03622,55.8848749 821.03622,53.8054277 L821.03622,23.3936642 Z M833.826772,37.6248099 C835.714445,37.6248099 837.178997,37.0724651 838.220472,35.9677587 C839.261947,34.8630524 839.782677,33.3359813 839.782677,31.3864995 C839.782677,29.5020004 839.261947,28.0399111 838.220472,27.0001874 C837.178997,25.9604638 835.746991,25.4406098 833.924409,25.4406098 L827.968504,25.4406098 L827.968504,37.6248099 L833.826772,37.6248099 Z M549.219735,60.9307479 C560.257743,60.9307479 569.618266,62.335166 577.301585,65.1440443 C584.984905,67.9529226 590.990789,70.5456945 595.31942,72.9224377 C598.998756,74.8670457 601.163039,77.4598176 601.812333,80.700831 C602.461628,83.9418445 601.920557,87.3988736 600.189105,91.0720222 L596.942648,96.9058172 C594.994765,100.795033 592.505839,103.063709 589.475798,103.711911 C586.445757,104.360114 582.87469,103.819953 578.762491,102.091413 C575.083155,100.362872 570.646375,98.5803416 565.452018,96.7437673 C560.257662,94.907193 554.19767,93.9889197 547.271861,93.9889197 C540.12962,93.9889197 534.610699,95.3933378 530.714932,98.2022161 C526.819164,101.011094 524.87131,105.008284 524.87131,110.193906 C524.87131,114.731325 526.873271,118.404418 530.877255,121.213296 C534.881238,124.022175 539.967303,126.506914 546.135601,128.66759 C552.3039,130.828266 558.904962,133.150957 565.938987,135.635734 C572.973012,138.120511 579.574074,141.30746 585.742373,145.196676 C591.910671,149.085892 596.996736,154.055371 601.000719,160.105263 C605.004702,166.155155 607.006664,173.825438 607.006664,183.116343 C607.006664,190.462641 605.545773,197.214651 602.623948,203.372576 C599.702122,209.530502 595.48177,214.878094 589.962766,219.415512 C584.443762,223.952931 577.788593,227.517993 569.997058,230.110803 C562.205523,232.703614 553.548391,234 544.025404,234 C530.606649,234 519.298272,232.055421 510.099932,228.166205 C500.901592,224.276989 493.813566,220.603895 488.83564,217.146814 C485.156304,214.986139 483.100236,212.285335 482.667373,209.044321 C482.23451,205.803308 483.208437,202.346279 485.589184,198.67313 L489.484932,192.839335 C491.865679,189.382254 494.516925,187.437675 497.438751,187.00554 C500.360576,186.573405 503.877536,187.437662 507.989735,189.598338 C511.885502,191.759014 516.91746,194.189737 523.085759,196.890582 C529.254057,199.591426 536.558512,200.941828 544.999341,200.941828 C552.141582,200.941828 557.768717,199.429378 561.880916,196.404432 C565.993115,193.379486 568.049184,189.274264 568.049184,184.088643 C568.049184,179.551224 566.047222,175.932146 562.043239,173.231302 C558.039256,170.530457 552.953191,168.045718 546.784892,165.777008 C540.616594,163.508299 534.015531,161.077575 526.981507,158.484765 C519.947482,155.891954 513.346419,152.650989 507.178121,148.761773 C501.009822,144.872557 495.923758,139.903077 491.919774,133.853186 C487.915791,127.803294 485.913829,120.024978 485.913829,110.518006 C485.913829,102.523506 487.591149,95.3933831 490.945837,89.1274238 C494.300526,82.8614645 498.84552,77.6759208 504.580955,73.5706371 C510.316391,69.4653534 517.025668,66.3324208 524.708987,64.1717452 C532.392306,62.0110695 540.562474,60.9307479 549.219735,60.9307479 Z M66.6522546,60.9307479 C77.6902626,60.9307479 87.0507857,62.335166 94.734105,65.1440443 C102.417424,67.9529226 108.423309,70.5456945 112.75194,72.9224377 C116.431276,74.8670457 118.595558,77.4598176 119.244853,80.700831 C119.894148,83.9418445 119.353077,87.3988736 117.621625,91.0720222 L114.375168,96.9058172 C112.427284,100.795033 109.938359,103.063709 106.908318,103.711911 C103.878276,104.360114 100.30721,103.819953 96.1950105,102.091413 C92.5156745,100.362872 88.0788948,98.5803416 82.8845381,96.7437673 C77.6901814,94.907193 71.6301895,93.9889197 64.7043806,93.9889197 C57.5621402,93.9889197 52.043219,95.3933378 48.1474515,98.2022161 C44.251684,101.011094 42.3038294,105.008284 42.3038294,110.193906 C42.3038294,114.731325 44.305791,118.404418 48.3097743,121.213296 C52.3137576,124.022175 57.3998222,126.506914 63.5681208,128.66759 C69.7364193,130.828266 76.3374819,133.150957 83.3715066,135.635734 C90.4055313,138.120511 97.0065938,141.30746 103.174892,145.196676 C109.343191,149.085892 114.429256,154.055371 118.433239,160.105263 C122.437222,166.155155 124.439184,173.825438 124.439184,183.116343 C124.439184,190.462641 122.978293,197.214651 120.056467,203.372576 C117.134642,209.530502 112.91429,214.878094 107.395286,219.415512 C101.876282,223.952931 95.2211125,227.517993 87.4295774,230.110803 C79.6380424,232.703614 70.9809111,234 61.4579239,234 C48.0391691,234 36.7307914,232.055421 27.5324515,228.166205 C18.3341115,224.276989 11.2460853,220.603895 6.26816012,217.146814 C2.58882414,214.986139 0.532755462,212.285335 0.0998924056,209.044321 C-0.332970651,205.803308 0.640956617,202.346279 3.02170343,198.67313 L6.91745146,192.839335 C9.29819827,189.382254 11.9494447,187.437675 14.8712704,187.00554 C17.793096,186.573405 21.3100556,187.437662 25.4222546,189.598338 C29.3180221,191.759014 34.3499797,194.189737 40.5182782,196.890582 C46.6865768,199.591426 53.9910313,200.941828 62.4318609,200.941828 C69.5741013,200.941828 75.2012367,199.429378 79.3134357,196.404432 C83.4256348,193.379486 85.4817034,189.274264 85.4817034,184.088643 C85.4817034,179.551224 83.4797418,175.932146 79.4757585,173.231302 C75.4717753,170.530457 70.3857106,168.045718 64.2174121,165.777008 C58.0491135,163.508299 51.4480509,161.077575 44.4140263,158.484765 C37.3800016,155.891954 30.778939,152.650989 24.6106404,148.761773 C18.4423419,144.872557 13.3562773,139.903077 9.35229398,133.853186 C5.34831071,127.803294 3.3463491,120.024978 3.3463491,110.518006 C3.3463491,102.523506 5.02366828,95.3933831 8.37835697,89.1274238 C11.7330457,82.8614645 16.2780396,77.6759208 22.0134751,73.5706371 C27.7489106,69.4653534 34.4581873,66.3324208 42.1415066,64.1717452 C49.8248258,62.0110695 57.9949935,60.9307479 66.6522546,60.9307479 Z M658.608239,0 C667.698363,0 672.243357,4.53735075 672.243357,13.6121884 L672.243357,80.3767313 C672.243357,82.5374069 672.18925,84.4279697 672.081034,86.0484765 C671.972818,87.6689832 671.810497,89.1274173 671.594066,90.4238227 C671.377634,91.9362957 671.26942,93.2326816 671.26942,94.3130194 L671.918711,94.3130194 C673.866595,90.4238033 676.626056,86.4806294 680.197176,82.4833795 C683.768296,78.4861296 687.988648,74.8670522 692.858357,71.6260388 C697.728066,68.3850253 703.246988,65.7922535 709.415286,63.8476454 C715.583585,61.9030374 722.238754,60.9307479 729.380995,60.9307479 C747.777675,60.9307479 762.007834,65.9002273 772.0719,75.8393352 C782.135966,85.778443 787.167924,101.767203 787.167924,123.806094 L787.167924,216.498615 C787.167924,225.573453 782.62293,230.110803 773.532806,230.110803 L759.573042,230.110803 C750.482918,230.110803 745.937924,225.573453 745.937924,216.498615 L745.937924,132.232687 C745.937924,122.077512 744.206498,113.921083 740.743593,107.763158 C737.280689,101.605232 730.354984,98.5263158 719.96627,98.5263158 C712.82403,98.5263158 706.277074,99.9307339 700.325207,102.739612 C694.37334,105.54849 689.341383,109.383632 685.229184,114.245152 C681.116985,119.106673 677.924668,124.886393 675.652137,131.584488 C673.379605,138.282582 672.243357,145.520737 672.243357,153.299169 L672.243357,216.498615 C672.243357,225.573453 667.698363,230.110803 658.608239,230.110803 L644.648475,230.110803 C635.558351,230.110803 631.013357,225.573453 631.013357,216.498615 L631.013357,13.6121884 C631.013357,4.53735075 635.558351,0 644.648475,0 L658.608239,0 Z M442.909262,64.8199446 C451.782955,64.8199446 456.219735,69.3572953 456.219735,78.432133 L456.219735,216.498615 C456.219735,225.573453 451.782955,230.110803 442.909262,230.110803 L428.624853,230.110803 C419.75116,230.110803 415.314381,225.573453 415.314381,216.498615 L415.314381,78.432133 C415.314381,69.3572953 419.75116,64.8199446 428.624853,64.8199446 L442.909262,64.8199446 Z M167.451074,64.8199446 C175.675472,64.8199446 180.545108,68.8171345 182.060129,76.8116343 L208.681074,173.393352 C209.113937,175.770095 209.492686,177.930738 209.817333,179.875346 C210.141981,181.819945 210.52073,183.656501 210.953593,185.385042 C211.386456,187.32965 211.711099,189.166196 211.92753,190.894737 L212.576822,190.894737 C212.793253,189.166196 213.117895,187.32965 213.550759,185.385042 C213.983622,183.656501 214.362371,181.819945 214.687018,179.875346 C215.011666,177.930738 215.498629,175.770095 216.147924,173.393352 L244.067451,76.8116343 C245.582472,69.0332021 250.560323,65.1440443 259.001152,65.1440443 L271.337688,65.1440443 C279.345654,65.1440443 284.323505,69.0332021 286.271388,76.8116343 L313.86627,173.393352 C314.515565,175.770095 315.002529,177.930738 315.327176,179.875346 C315.651823,181.819945 316.030573,183.656501 316.463436,185.385042 C316.896299,187.32965 317.220941,189.166196 317.437373,190.894737 L318.086664,190.894737 C318.303096,189.166196 318.627738,187.32965 319.060601,185.385042 C319.493464,183.656501 319.872214,181.819945 320.196861,179.875346 C320.521508,177.930738 321.008472,175.770095 321.657766,173.393352 L347.954066,76.8116343 C349.901949,68.8171345 354.8798,64.8199446 362.887766,64.8199446 L377.821467,64.8199446 C382.799392,64.8199446 386.262245,66.2243627 388.210129,69.033241 C390.158012,71.8421193 390.482655,75.5152128 389.184066,80.0526316 L346.655483,218.767313 C344.491168,226.329678 339.405103,230.110803 331.397137,230.110803 L309.645877,230.110803 C301.421479,230.110803 296.335414,226.221646 294.38753,218.443213 L269.389814,135.797784 C268.740519,133.637108 268.199448,131.476465 267.766585,129.315789 C267.333722,127.155114 266.900866,125.210535 266.468003,123.481994 C266.03514,121.537386 265.710497,119.70084 265.494066,117.972299 L264.844774,117.972299 C264.411911,119.70084 263.979055,121.537386 263.546192,123.481994 C263.113329,125.210535 262.680472,127.155114 262.247609,129.315789 C261.814746,131.476465 261.273675,133.637108 260.624381,135.797784 L235.626664,218.443213 C233.67878,226.221646 228.70093,230.110803 220.692963,230.110803 L198.292412,230.110803 C190.500877,230.110803 185.523027,226.329678 183.358711,218.767313 L140.505483,80.0526316 C139.206894,75.5152128 139.585643,71.8421193 141.641743,69.033241 C143.697842,66.2243627 147.106588,64.8199446 151.868081,64.8199446 L167.451074,64.8199446 Z" id="swish®"></path>
            </g>
            <g id="Symbol/Colour">
                <g id="Right-Swirl" transform="translate(290.943236, 119.745127)">
                    <path d="M0,853.441561 C205.503313,951.72558 459.122638,903.085081 612.343009,720.521366 C793.950658,504.13568 765.743204,181.546708 549.339536,-5.68434189e-14 L405.478025,171.413604 C574.541924,313.247095 596.579403,565.26898 454.698958,734.32089 C341.568437,869.116254 155.304336,914.123301 0,853.441561" id="Base-Shape" fill="url(#linearGradient-1)"></path>
                    <path d="M1.13686838e-13,853.441561 C205.503313,951.72558 459.122638,903.085081 612.343009,720.521366 C631.107684,698.1632 647.625553,674.669143 661.93458,650.315926 C686.13095,499.955762 632.919914,341.028964 507.75015,236.02151 C475.948207,209.341565 441.521826,187.847555 405.5,171.433584 C574.543922,313.270072 596.57241,565.276972 454.698958,734.32089 C341.568437,869.116254 155.304336,914.123301 1.13686838e-13,853.441561" id="Light-Cast" fill="url(#linearGradient-2)"></path>
                </g>
                <g id="Left-Swirl">
                    <path d="M732.050167,49.8076252 C526.547853,-48.4763943 272.928528,0.163106219 119.708157,182.726821 C-61.8994915,399.113506 -33.6920378,721.702478 182.710631,903.249186 L326.573141,731.835582 C157.508243,590.002092 135.471763,337.980207 277.352208,168.927297 C390.482729,34.1319335 576.74683,-10.8751143 732.050167,49.8076252" id="Base-shape" fill="url(#linearGradient-3)"></path>
                    <path d="M732.050167,49.8076252 C526.547853,-48.4763943 272.928528,0.163106219 119.708157,182.726821 C100.942483,205.085986 84.4246139,228.580043 70.1165865,252.93326 C45.9192168,403.293424 99.1312519,562.219223 224.301016,667.227676 C256.102959,693.906622 290.52934,715.401631 326.550163,731.814603 C157.507244,589.979114 135.477757,337.972215 277.352208,168.927297 C390.482729,34.1319335 576.74683,-10.8751143 732.050167,49.8076252" id="Shadow" fill="url(#linearGradient-4)"></path>
                </g>
            </g>
        </g>
    </g>
</svg>